# xmcd
#
# Track frame offsets:
#	150
#	20030
#	28810
#	42660
#	50822
#	60477
#	70562
#	88772
#	110162
#	116072
#	125910
#	133262
#	154110
#	165337
#
# Disc length: 2335 seconds
#
# Revision: 1
# Processed by: cddbd v1.5.1PL0 Copyright (c) Steve Scherf et al.
# Submitted via: CDex 1.50Beta5
#
DISCID=d1091d0e
DTITLE=清水ミチコ - 飴と鞭
DYEAR=1900
DGENRE=Pop
TTITLE0=フリージア・ドリーム
TTITLE1=音痴なトリオ
TTITLE2=アイネ・クライネ・ナハトムジーク
TTITLE3=ス・キャスター四姉妹
TTITLE4=今日のお料理
TTITLE5=天気を読む女
TTITLE6=月刊明星メドレー〜シブイ編〜
TTITLE7=酔いどれ女の流れ唄
TTITLE8=メリークリスマス・ミスター一休さん
TTITLE9=某アーティスト作曲法
TTITLE10=一週間の唄〜婦警編〜
TTITLE11=あったかいね
TTITLE12=鳳蘭のマンボ
TTITLE13=鳳蘭のマンボ(オリジナル・カラオケ)
EXTD=
EXTT0=
EXTT1=
EXTT2=
EXTT3=
EXTT4=
EXTT5=
EXTT6=
EXTT7=
EXTT8=
EXTT9=
EXTT10=
EXTT11=
EXTT12=
EXTT13=
PLAYORDER=
